<svg width="21" height="20" viewBox="0 0 21 20" fill="none" xmlns="http://www.w3.org/2000/svg">
<path d="M16.8938 5.625H15.7477V3.125C15.7477 2.95924 15.6819 2.80027 15.5647 2.68306C15.4474 2.56585 15.2885 2.5 15.1227 2.5H5.12271C4.95695 2.5 4.79798 2.56585 4.68077 2.68306C4.56356 2.80027 4.49771 2.95924 4.49771 3.125V5.625H3.35162C2.26021 5.625 1.37271 6.46641 1.37271 7.5V13.75C1.37271 13.9158 1.43856 14.0747 1.55577 14.1919C1.67298 14.3092 1.83195 14.375 1.99771 14.375H4.49771V16.875C4.49771 17.0408 4.56356 17.1997 4.68077 17.3169C4.79798 17.4342 4.95695 17.5 5.12271 17.5H15.1227C15.2885 17.5 15.4474 17.4342 15.5647 17.3169C15.6819 17.1997 15.7477 17.0408 15.7477 16.875V14.375H18.2477C18.4135 14.375 18.5724 14.3092 18.6897 14.1919C18.8069 14.0747 18.8727 13.9158 18.8727 13.75V7.5C18.8727 6.46641 17.9852 5.625 16.8938 5.625ZM5.74771 3.75H14.4977V5.625H5.74771V3.75ZM14.4977 16.25H5.74771V12.5H14.4977V16.25ZM17.6227 13.125H15.7477V11.875C15.7477 11.7092 15.6819 11.5503 15.5647 11.4331C15.4474 11.3158 15.2885 11.25 15.1227 11.25H5.12271C4.95695 11.25 4.79798 11.3158 4.68077 11.4331C4.56356 11.5503 4.49771 11.7092 4.49771 11.875V13.125H2.62271V7.5C2.62271 7.15547 2.95006 6.875 3.35162 6.875H16.8938C17.2954 6.875 17.6227 7.15547 17.6227 7.5V13.125ZM15.7477 9.0625C15.7477 9.24792 15.6927 9.42918 15.5897 9.58335C15.4867 9.73752 15.3403 9.85768 15.169 9.92864C14.9977 9.99959 14.8092 10.0182 14.6273 9.98199C14.4455 9.94581 14.2784 9.85652 14.1473 9.72541C14.0162 9.5943 13.9269 9.42725 13.8907 9.2454C13.8546 9.06354 13.8731 8.87504 13.9441 8.70373C14.015 8.53243 14.1352 8.38601 14.2894 8.283C14.4435 8.17998 14.6248 8.125 14.8102 8.125C15.0589 8.125 15.2973 8.22377 15.4731 8.39959C15.6489 8.5754 15.7477 8.81386 15.7477 9.0625Z" fill="#2F3C4C"/>
</svg>
