<?xml version="1.0" encoding="utf-8"?>
<!-- Generator: Adobe Illustrator 28.1.0, SVG Export Plug-In . SVG Version: 6.00 Build 0)  -->
<svg version="1.1" id="Layer_2" xmlns="http://www.w3.org/2000/svg" xmlns:xlink="http://www.w3.org/1999/xlink" x="0px" y="0px"
	 viewBox="0 0 40 40" style="enable-background:new 0 0 40 40;" xml:space="preserve">
<style type="text/css">
	.st0{fill:#FFFFFF;}
</style>
<g>
	<g>
		<path class="st0" d="M26.13,27.2c0,0.95,0,0.13,0,1.08c0,0.43-0.18,0.61-0.6,0.61c-1.05,0-2.1,0-3.14,0c-0.41,0-0.61-0.2-0.62-0.6
			c-0.01-0.53-0.02-1.07-0.02-1.6c0-1.4,0.01-1.04,0.02-2.44c0-0.17-0.05-0.22-0.22-0.22c-1.94,0.01-3.89,0.01-5.83,0.01
			c-0.13,0-0.24-0.01-0.24,0.18c0.01,1.22,0.02,2.44,0.02,3.66c0,0.69,0-0.39,0,0.3c0,0.11-0.01,0.23-0.04,0.34
			c-0.06,0.26-0.21,0.38-0.48,0.38c-1.09,0-2.18,0-3.27,0c-0.29,0-0.46-0.11-0.54-0.45c-0.03-0.12-0.03-0.24-0.03-0.36
			c0-1.86,0-1.96,0-3.83c0-0.18-0.06-0.24-0.24-0.24c-0.58,0.01-1.16,0.01-1.73,0c-0.15,0-0.3-0.04-0.44-0.09
			C8.5,23.87,8.4,23.69,8.4,23.47c0-1.49,0-2.98,0-4.47c0-0.39,0.26-0.62,0.65-0.63c0.38,0,0.77-0.01,1.15,0
			c0.17,0,0.22-0.05,0.22-0.23c-0.01-1.11,0-2.23,0-3.34c0-0.4,0.15-0.54,0.55-0.54c1.13,0,2.25,0,3.38,0c0.36,0,0.5,0.14,0.5,0.49
			c0,0.38,0.01,0.75,0,1.13c0,0.16,0.87,0.22,0.87,0.87c0,0.48-0.01,0.97-0.01,1.45c0,0.05,0.07,0.14,0.13,0.15
			c0.35,0.07,0.45-0.02,0.48-0.37c0.1-1.48,0.2-2.97,0.31-4.45c0.09-1.22,0.18-2.45,0.28-3.67c0.01-0.15,0.06-0.3,0.12-0.43
			c0.09-0.21,0.27-0.26,0.5-0.26c0.74,0.01,1.49,0,2.23,0c0.36,0,0.57,0.18,0.6,0.53c0.06,0.68,0.09,1.35,0.15,2.03
			c0.06,0.76,0.13,1.51,0.19,2.27c0.06,0.76,0.14,1.51,0.19,2.27c0.04,0.63,0.07,1.27,0.1,1.9c0.01,0.14,0.05,0.2,0.19,0.19
			c0.35-0.01,0.71,0,1.06-0.01c0.05,0,0.14-0.09,0.14-0.13c0.01-0.27,0-0.53-0.01-0.8c0-0.13-0.06-0.16-0.19-0.16
			c-0.61,0-0.87-0.18-0.89-0.85c-0.01-0.64,0-1.28,0-1.93c0-0.1,0.01-0.21,0.04-0.3c0.11-0.33,0.23-0.46,0.51-0.48
			c0.17-0.01,0.33-0.03,0.5-0.02c0.42,0.03,0.78-0.11,1.13-0.33c0.21-0.13,0.45-0.22,0.67-0.33c0.17-0.08,0.33-0.16,0.49-0.25
			c0.23-0.12,0.46-0.26,0.69-0.38c0.22-0.11,0.45-0.22,0.67-0.33c0.22-0.11,0.43-0.22,0.65-0.33c0.27-0.14,0.55-0.27,0.82-0.41
			c0.23-0.12,0.45-0.25,0.67-0.38c0.16-0.09,0.33-0.18,0.5-0.26c0.4-0.19,0.8-0.38,1.2-0.58c0.38-0.2,0.75-0.41,1.13-0.61
			c0.41-0.22,0.9-0.33,1.26,0.15c0.09,0.12,0.12,0.29,0.14,0.44c0.02,0.22-0.01,0.45,0.01,0.67c0.04,0.41-0.21,0.63-0.5,0.84
			c-0.16,0.12-0.32,0.23-0.49,0.35c-0.3,0.22-0.61,0.43-0.91,0.65c-0.11,0.08-0.22,0.17-0.34,0.26c-0.49,0.37-0.97,0.75-1.47,1.11
			c-0.49,0.36-0.99,0.7-1.48,1.06c-0.38,0.28-0.75,0.57-1.12,0.85c-0.11,0.09-0.22,0.19-0.34,0.25c-0.18,0.08-0.17,0.22-0.16,0.38
			c0.02,0.56-0.29,0.74-0.75,0.75c-0.19,0.01-0.24,0.08-0.24,0.24c0,0.24,0,0.48,0,0.71c0,0.17,0.12,0.15,0.23,0.15
			c0.83,0,1.66,0,2.49,0c0.33,0,0.65,0,0.98,0c0.37,0,0.66,0.3,0.66,0.67c0,0.27,0,0.53,0,0.8c0,1.16-0.02,2.31,0.01,3.47
			c0.01,0.46-0.33,0.7-0.72,0.71c-0.59,0.01-1.19,0.01-1.78,0c-0.21,0-0.29,0.05-0.29,0.28C26.14,25.26,26.13,26.23,26.13,27.2
			C26.13,27.2,26.13,27.2,26.13,27.2z M25.53,14.94c0.27-0.18,0.51-0.34,0.74-0.51c0.27-0.2,0.53-0.43,0.81-0.63
			c0.37-0.27,0.76-0.53,1.14-0.8c0.5-0.37,0.99-0.75,1.48-1.12c0.49-0.36,0.99-0.72,1.48-1.08c0.06-0.05,0.08-0.15,0.12-0.22
			c-0.02-0.01-0.04-0.02-0.05-0.03c-2.03,1.04-4.06,2.08-6.13,3.14C25.66,13.98,25.51,14.48,25.53,14.94z M19.46,13.03
			c0-0.11,0.01-0.18,0-0.25c-0.07-0.81-0.14-1.62-0.22-2.43c-0.01-0.06-0.09-0.15-0.14-0.15c-0.3-0.01-0.61,0-0.91-0.01
			c-0.14,0-0.17,0.06-0.17,0.18c-0.01,0.25-0.07,0.5-0.06,0.75c0,0.15,0.06,0.33,0.15,0.44c0.18,0.23,0.41,0.44,0.61,0.65
			C18.95,12.48,19.19,12.74,19.46,13.03z M18.88,14.59c-0.37-0.4-0.73-0.79-1.13-1.21c-0.08,1.12-0.15,2.18-0.23,3.24
			c0.01,0.01,0.02,0.01,0.03,0.02C17.99,15.97,18.43,15.29,18.88,14.59z M19.71,16.11c-0.05,0.04-0.09,0.06-0.11,0.09
			c-0.18,0.29-0.35,0.58-0.53,0.86c-0.23,0.37-0.48,0.73-0.72,1.1c-0.03,0.05-0.04,0.1-0.06,0.16c0.06,0.02,0.11,0.05,0.17,0.05
			c0.41,0,0.82-0.01,1.23,0.01c0.18,0,0.22-0.06,0.2-0.23c-0.05-0.37-0.08-0.75-0.12-1.12C19.76,16.73,19.74,16.43,19.71,16.11z"/>
		<path class="st0" d="M24.7,29.52c-1.42,0-1.14,0.73-2.82,0.7c-1.67-0.01-1.44-0.73-3.3-0.7c-1.86,0.01-1.3,0.68-2.88,0.68
			c-1.6,0-1.38-0.68-3.08-0.68c-1.7,0-1.21,0.41-2.7,0.68v0.67c1.45-0.1,1.24-0.73,2.73-0.73c1.51,0,1.43,0.76,3.06,0.76
			c1.61,0,1.25-0.74,2.88-0.74c1.63,0,1.51,0.77,3.35,0.74c1.85-0.02,1.56-0.73,2.86-0.71c1.26,0.01,0.8,0.49,2.41,0.71
			c0.01,0,0.01-0.44,0-0.67C25.98,30.09,26.11,29.52,24.7,29.52z"/>
		<path class="st0" d="M24.7,30.86c-1.02,0.01-1.14,0.73-2.82,0.7c-1.67-0.01-2.28-0.7-3.3-0.7c-1.03,0-1.3,0.68-2.88,0.68
			c-1.6,0-2.11-0.68-3.08-0.68c-0.96,0-1.21,0.41-2.7,0.68v0.67c1.45-0.1,2.14-0.73,2.73-0.73c0.61,0,1.43,0.76,3.06,0.76
			c1.61,0,2.28-0.74,2.88-0.74c0.6,0.02,1.51,0.77,3.35,0.74c1.85-0.02,2.12-0.7,2.86-0.71c0.6-0.01,0.83,0.55,2.41,0.71
			c0.01,0,0.01-0.44,0-0.67C25.98,31.42,25.7,30.83,24.7,30.86z"/>
		<path class="st0" d="M14.22,12.39h-3.12c-0.36,0-0.66,0.3-0.66,0.66l0,0c0,0.36,0.3,0.66,0.66,0.66h3.12
			c0.36,0,0.66-0.3,0.66-0.66l0,0C14.88,12.69,14.59,12.39,14.22,12.39z"/>
	</g>
	<g>
		<path class="st0" d="M20.33,39.98c-10.76,0-19.52-8.76-19.52-19.52C0.81,9.7,9.57,0.94,20.33,0.94c10.76,0,19.52,8.76,19.52,19.52
			C39.85,31.22,31.09,39.98,20.33,39.98z M20.33,3.77c-9.21,0-16.7,7.49-16.7,16.7c0,9.21,7.49,16.7,16.7,16.7s16.7-7.49,16.7-16.7
			C37.02,11.26,29.53,3.77,20.33,3.77z"/>
	</g>
</g>
</svg>
