<?xml version="1.0" encoding="utf-8"?>
<!-- Generator: Adobe Illustrator 28.1.0, SVG Export Plug-In . SVG Version: 6.00 Build 0)  -->
<svg version="1.1" id="Layer_1" xmlns="http://www.w3.org/2000/svg" xmlns:xlink="http://www.w3.org/1999/xlink" x="0px" y="0px"
	 viewBox="0 0 40 40" style="enable-background:new 0 0 40 40;" xml:space="preserve">
<style type="text/css">
	.st0{fill:#FFFFFF;}
</style>
<g>
	<g>
		<path class="st0" d="M20.25,39.98c-10.76,0-19.52-8.76-19.52-19.52C0.73,9.7,9.49,0.94,20.25,0.94c10.76,0,19.52,8.76,19.52,19.52
			C39.77,31.22,31.01,39.98,20.25,39.98z M20.25,3.77c-9.21,0-16.7,7.49-16.7,16.7c0,9.21,7.49,16.7,16.7,16.7s16.7-7.49,16.7-16.7
			C36.94,11.26,29.45,3.77,20.25,3.77z"/>
	</g>
	<g>
		<path class="st0" d="M25.47,8.57c-0.13-0.24-0.39-0.39-0.66-0.39H19c-0.29,0-0.56,0.17-0.69,0.44L13.1,19.88
			c-0.09,0.2-0.09,0.43,0,0.64c0.09,0.2,0.27,0.35,0.48,0.41l5.14,1.44L15.5,32.2c-0.12,0.36,0.05,0.75,0.39,0.92
			c0.11,0.05,0.22,0.08,0.33,0.08c0.25,0,0.49-0.12,0.63-0.34l8.62-12.92c0.14-0.2,0.16-0.46,0.08-0.69
			c-0.09-0.23-0.28-0.4-0.52-0.46l-4.78-1.23l5.2-8.21C25.59,9.11,25.6,8.81,25.47,8.57z"/>
	</g>
</g>
</svg>
