<?xml version="1.0" encoding="utf-8"?>
<!-- Generator: Adobe Illustrator 28.1.0, SVG Export Plug-In . SVG Version: 6.00 Build 0)  -->
<svg version="1.1" id="Layer_2" xmlns="http://www.w3.org/2000/svg" xmlns:xlink="http://www.w3.org/1999/xlink" x="0px" y="0px"
	 viewBox="0 0 40 40" style="enable-background:new 0 0 40 40;" xml:space="preserve">
<style type="text/css">
	.st0{fill:#FFFFFF;}
</style>
<g>
	<g>
		<g>
			<path class="st0" d="M20.36,39.98c-10.76,0-19.52-8.76-19.52-19.52C0.84,9.7,9.59,0.94,20.36,0.94
				c10.76,0,19.52,8.76,19.52,19.52C39.87,31.22,31.12,39.98,20.36,39.98z M20.36,3.77c-9.21,0-16.7,7.49-16.7,16.7
				c0,9.21,7.49,16.7,16.7,16.7s16.7-7.49,16.7-16.7C37.05,11.26,29.56,3.77,20.36,3.77z"/>
		</g>
	</g>
	<g>
		<path class="st0" d="M32.83,15.01c-1.77,0-3.55-0.01-5.32-0.01c-1.16,0-2,0.52-2.52,1.55c-1.08,2.13-2.16,4.26-3.29,6.47
			c-5.26-1.78-10.51-3.55-15.89-5.37c1.38-0.91,2.64-1.75,3.92-2.55C9.93,14.98,10.25,15,10.52,15c3.55-0.01,7.1-0.02,10.65,0.01
			c0.57,0,1.03-0.09,1.35-0.58c0.69-1.05,1.67-1.27,2.89-1.23c2.47,0.09,4.95,0.02,7.42,0.02C32.83,13.82,32.83,14.41,32.83,15.01z"
			/>
		<path class="st0" d="M33.58,25.77c-0.29-0.03-1.34-0.05-1.62-0.08c-0.96-3.24-2.4-4.61-4.72-4.51c-2.43,0.11-3.9,1.56-4.52,4.54
			c-1.24,0-2.51,0.01-3.78-0.01c-0.11,0-0.28-0.18-0.32-0.31c-0.31-0.92-0.6-1.85-0.9-2.78c0.63,0.21,1.38,0.46,2.12,0.71
			c0.75,0.25,1.5,0.5,2.29,0.76c1.08-2.12,2.22-4.16,3.16-6.3c0.65-1.48,1.59-2.14,3.19-1.91c0.27,0.04,2.55-0.05,3.34-0.02
			c0.34,0.01,0.37,0.12,0.71,0.18c0,0.93,0,2.01,0,3.13c0,0.12,1.06,0.24,1.06,0.37C33.58,21.7,33.58,24.01,33.58,25.77z
			 M29.16,16.65c0,1.56,0,0.96,0,2.52c0.82,0,1.63,0,2.42,0c0-0.37,0-2.19,0-2.52C30.77,16.65,30,16.65,29.16,16.65z"/>
		<path class="st0" d="M26.68,29.35c-1.29-0.41-2.33-1.12-2.8-2.46c-0.66-1.88,0.32-3.93,2.2-4.62c1.85-0.68,3.89,0.22,4.64,2.04
			c0.76,1.84-0.1,3.93-1.94,4.73c-0.25,0.11-0.5,0.21-0.75,0.31C27.58,29.35,27.13,29.35,26.68,29.35z M29.23,25.72
			c0.01-1.04-0.84-1.9-1.89-1.91c-1.03,0-1.86,0.8-1.88,1.82c-0.02,1.08,0.77,1.92,1.83,1.94C28.35,27.59,29.22,26.76,29.23,25.72z"
			/>
		<path class="st0" d="M13.33,29.35c-0.94-0.41-1.83-0.86-2.38-1.8c-1.05-1.79-0.39-4.11,1.45-5.08c1.82-0.96,4.07-0.23,4.98,1.6
			c0.93,1.86,0.1,4.11-1.81,4.95c-0.25,0.11-0.49,0.21-0.74,0.32C14.33,29.35,13.83,29.35,13.33,29.35z M14.12,27.57
			c1.05-0.01,1.92-0.89,1.88-1.91c-0.03-1.04-0.91-1.87-1.96-1.84c-1.03,0.03-1.82,0.84-1.82,1.88
			C12.23,26.77,13.05,27.58,14.12,27.57z"/>
		<path class="st0" d="M13.38,21.15c-0.7,0.29-1.31,0.55-2.02,0.84c-0.33-0.55-0.69-1.15-1.16-1.92
			C11.36,20.47,12.35,20.8,13.38,21.15z"/>
		<path class="st0" d="M28.33,25.66c0.02,0.58-0.38,1.01-0.95,1.03c-0.59,0.03-1.07-0.42-1.07-1c0-0.55,0.44-0.99,1-0.99
			C27.9,24.69,28.32,25.09,28.33,25.66z"/>
		<path class="st0" d="M14.08,24.7c0.6-0.01,1.05,0.43,1.04,1.01c-0.01,0.55-0.44,0.97-1,0.98c-0.57,0.01-1.07-0.46-1.06-1.01
			C13.08,25.16,13.54,24.71,14.08,24.7z"/>
	</g>
</g>
</svg>
