<svg width="21" height="20" viewBox="0 0 21 20" fill="none" xmlns="http://www.w3.org/2000/svg">
<path d="M12.0188 2.96337C12.04 2.88405 12.0767 2.80969 12.1266 2.74453C12.1766 2.67938 12.2389 2.62471 12.31 2.58364C12.3811 2.54258 12.4596 2.51592 12.541 2.50521C12.6224 2.49449 12.7051 2.49992 12.7844 2.52118C13.9431 2.82348 15.0002 3.42918 15.8469 4.2759C16.6936 5.12261 17.2993 6.17972 17.6016 7.33837C17.6229 7.41767 17.6283 7.50039 17.6176 7.5818C17.6069 7.6632 17.5802 7.7417 17.5392 7.8128C17.4981 7.8839 17.4434 7.94621 17.3783 7.99618C17.3131 8.04614 17.2388 8.08278 17.1594 8.10399C17.1066 8.11786 17.0523 8.12495 16.9977 8.12509C16.86 8.12508 16.7261 8.07959 16.6169 7.99567C16.5077 7.91175 16.4293 7.79411 16.3938 7.66102C16.1473 6.71518 15.6529 5.8522 14.9618 5.16104C14.2706 4.46988 13.4076 3.97555 12.4618 3.72899C12.3824 3.70786 12.3079 3.67128 12.2427 3.62136C12.1775 3.57143 12.1227 3.50913 12.0816 3.43802C12.0404 3.36691 12.0137 3.28838 12.0029 3.20694C11.9922 3.12549 11.9976 3.04273 12.0188 2.96337ZM11.8368 6.22899C12.9141 6.51649 13.6063 7.20868 13.8938 8.28602C13.9293 8.41911 14.0077 8.53675 14.1169 8.62067C14.2261 8.70459 14.36 8.75008 14.4977 8.75009C14.5523 8.74995 14.6066 8.74286 14.6594 8.72899C14.7388 8.70778 14.8131 8.67114 14.8783 8.62118C14.9434 8.57121 14.9981 8.5089 15.0392 8.4378C15.0802 8.3667 15.1069 8.2882 15.1176 8.2068C15.1283 8.12539 15.1229 8.04267 15.1016 7.96337C14.7016 6.46649 13.6563 5.42118 12.1594 5.02118C12.0801 4.99999 11.9974 4.99464 11.9161 5.00541C11.8347 5.01619 11.7562 5.04289 11.6852 5.08398C11.6141 5.12508 11.5518 5.17977 11.5019 5.24493C11.452 5.3101 11.4154 5.38445 11.3942 5.46376C11.373 5.54306 11.3677 5.62577 11.3784 5.70714C11.3892 5.78852 11.4159 5.86698 11.457 5.93804C11.4981 6.00909 11.5528 6.07136 11.618 6.12128C11.6831 6.17121 11.7575 6.20781 11.8368 6.22899ZM18.2383 13.6782C18.099 14.7368 17.5791 15.7085 16.7758 16.4119C15.9724 17.1152 14.9405 17.502 13.8727 17.5001C7.66959 17.5001 2.62272 12.4532 2.62272 6.25009C2.6208 5.18234 3.00763 4.15042 3.71095 3.34704C4.41426 2.54366 5.38598 2.02376 6.44459 1.88446C6.71229 1.85177 6.98338 1.90654 7.2174 2.04058C7.45141 2.17463 7.6358 2.38076 7.74303 2.62821L9.39303 6.3118V6.32118C9.47513 6.5106 9.50904 6.7174 9.49172 6.92311C9.47441 7.12883 9.40641 7.32706 9.29381 7.50009C9.27975 7.52118 9.26491 7.54071 9.24928 7.56024L7.62272 9.48837C8.20787 10.6774 9.45162 11.9102 10.6563 12.497L12.5579 10.879C12.5765 10.8633 12.5961 10.8487 12.6165 10.8352C12.7894 10.7199 12.9883 10.6495 13.1952 10.6304C13.4021 10.6114 13.6106 10.6441 13.8016 10.7259L13.8118 10.7306L17.4922 12.3798C17.7401 12.4866 17.9468 12.6709 18.0813 12.9049C18.2157 13.1389 18.2709 13.4102 18.2383 13.6782ZM16.9977 13.522C16.9977 13.522 16.9922 13.522 16.9891 13.522L13.3172 11.8774L11.4149 13.4954C11.3965 13.511 11.3772 13.5256 11.3571 13.5391C11.1772 13.6592 10.9693 13.7304 10.7536 13.7461C10.5379 13.7617 10.3219 13.7211 10.1266 13.6282C8.66334 12.9212 7.20475 11.4735 6.49694 10.0259C6.40321 9.83201 6.36115 9.61722 6.37484 9.40232C6.38853 9.18743 6.4575 8.97971 6.57506 8.7993C6.58831 8.77812 6.6032 8.75801 6.61959 8.73915L8.24772 6.80868L6.60709 3.1368C6.60679 3.13369 6.60679 3.13055 6.60709 3.12743C5.84948 3.22626 5.15387 3.59787 4.65054 4.17268C4.14721 4.74748 3.87067 5.48606 3.87272 6.25009C3.87561 8.90136 4.93011 11.4432 6.80485 13.318C8.67958 15.1927 11.2214 16.2472 13.8727 16.2501C14.6363 16.2527 15.3747 15.9771 15.9498 15.4749C16.5249 14.9727 16.8975 14.2781 16.9977 13.5212V13.522Z" fill="#2F3C4C"/>
</svg>
